<svg width="19" height="18" viewBox="0 0 19 18" fill="none" xmlns="http://www.w3.org/2000/svg">
<path d="M16.0455 13.5098C16.3806 12.0262 15.9202 10.4174 14.9393 9.36631C14.2643 8.6428 13.4363 8.14053 12.637 7.61212C11.6991 6.99207 10.7995 6.24707 10.1271 5.2794C9.46684 4.32928 9.01383 3.22879 8.39729 2.24608C8.20002 1.93176 7.98636 1.62997 7.74765 1.35323C6.80467 0.260622 5.36082 -0.25239 4.02941 0.121003C1.8013 0.74571 0.117443 3.31614 0.00820551 5.81067C-0.0415937 6.94911 0.138326 8.0521 0.465073 9.12789C0.805957 10.2506 1.28596 11.2974 1.85303 12.298C2.67969 13.7565 3.79937 15.008 5.11728 15.9352C6.01528 16.5671 6.95471 17.1019 7.96227 17.4818C8.92773 17.8459 9.91761 18.0463 10.9393 17.9909C13.1777 17.8691 15.4848 15.9925 16.0455 13.5098Z" fill="#111111"/>
<path d="M16.4504 5.72071C17.8588 5.72071 19.0005 4.44856 19.0005 2.87928C19.0005 1.31 17.8588 0.0378418 16.4504 0.0378418C15.0421 0.0378418 13.9004 1.31 13.9004 2.87928C13.9004 4.44856 15.0421 5.72071 16.4504 5.72071Z" fill="#111111"/>
</svg>
