<svg width="147" height="143" viewBox="0 0 147 143" fill="none" xmlns="http://www.w3.org/2000/svg">
<g filter="url(#filter0_d_1444_35004)">
<path d="M126.774 17.7208C119.721 11.0467 109.76 10 98.0044 10H45.7213C34.1044 10 24.1459 11.0467 17.0908 17.718C10.0357 24.3893 9 33.7458 9 44.6739V94.1307C9 105.318 10.0386 114.608 17.0908 121.282C24.1429 127.956 34.1044 129 45.9307 129H98.0044C109.76 129 119.721 127.953 126.774 121.282C133.826 114.611 134.864 105.318 134.864 94.1307V44.8693C134.864 33.6816 133.829 24.3279 126.774 17.7208Z" fill="white"/>
<rect width="71.0549" height="59.5085" transform="translate(36.5332 39.3101)" fill="white"/>
<path d="M96.539 83.9738C97.7922 79.0692 96.0704 73.7503 92.4022 70.2754C89.8778 67.8834 86.7815 66.2229 83.7921 64.4759C80.2848 62.426 76.9206 59.9631 74.4058 56.7639C71.9367 53.6228 70.2425 49.9845 67.9368 46.7357C67.1991 45.6965 66.4001 44.6988 65.5073 43.7839C61.9809 40.1717 56.5812 38.4757 51.6021 39.7101C43.2696 41.7754 36.9724 50.2733 36.5639 58.5203C36.3777 62.284 37.0505 65.9305 38.2725 69.4871C39.5473 73.1987 41.3423 76.6594 43.463 79.9675C46.5545 84.7893 50.7418 88.927 55.6705 91.9924C59.0287 94.0813 62.542 95.8496 66.3099 97.1053C69.9205 98.309 73.6224 98.9718 77.4432 98.7883C85.8142 98.3859 94.4424 92.1817 96.539 83.9738Z" fill="#41230F"/>
<path d="M98.0521 58.223C103.319 58.223 107.589 54.0172 107.589 48.8292C107.589 43.6411 103.319 39.4353 98.0521 39.4353C92.7852 39.4353 88.5156 43.6411 88.5156 48.8292C88.5156 54.0172 92.7852 58.223 98.0521 58.223Z" fill="#87FC6A"/>
</g>
<defs>
<filter id="filter0_d_1444_35004" x="-3" y="0" width="149.865" height="143" filterUnits="userSpaceOnUse" color-interpolation-filters="sRGB">
<feFlood flood-opacity="0" result="BackgroundImageFix"/>
<feColorMatrix in="SourceAlpha" type="matrix" values="0 0 0 0 0 0 0 0 0 0 0 0 0 0 0 0 0 0 127 0" result="hardAlpha"/>
<feOffset dy="2"/>
<feGaussianBlur stdDeviation="6"/>
<feComposite in2="hardAlpha" operator="out"/>
<feColorMatrix type="matrix" values="0 0 0 0 0.787722 0 0 0 0 0.815385 0 0 0 0 0.758151 0 0 0 0.4 0"/>
<feBlend mode="normal" in2="BackgroundImageFix" result="effect1_dropShadow_1444_35004"/>
<feBlend mode="normal" in="SourceGraphic" in2="effect1_dropShadow_1444_35004" result="shape"/>
</filter>
</defs>
</svg>
