<svg width="24" height="24" viewBox="0 0 24 24" fill="none" xmlns="http://www.w3.org/2000/svg">
<path d="M17.6675 15.5076C17.932 14.3537 17.5686 13.1024 16.7942 12.2849C16.2613 11.7222 15.6076 11.3315 14.9766 10.9205C14.2362 10.4383 13.5259 9.85883 12.9951 9.1062C12.4738 8.36721 12.1162 7.51128 11.6294 6.74695C11.4737 6.50248 11.305 6.26775 11.1166 6.05252C10.3721 5.20271 9.23222 4.8037 8.18111 5.09411C6.42208 5.58 5.09272 7.57922 5.00648 9.51941C4.96716 10.4049 5.1092 11.2627 5.36716 12.0995C5.63628 12.9727 6.01523 13.7868 6.46291 14.5651C7.11555 15.6995 7.9995 16.6729 9.03996 17.3941C9.7489 17.8855 10.4906 18.3015 11.286 18.5969C12.0482 18.8801 12.8297 19.036 13.6363 18.9929C15.4034 18.8982 17.2249 17.4386 17.6675 15.5076Z" fill="#41230F"/>
<path d="M17.9868 9.44949C19.0987 9.44949 20 8.46004 20 7.23948C20 6.01893 19.0987 5.02948 17.9868 5.02948C16.875 5.02948 15.9736 6.01893 15.9736 7.23948C15.9736 8.46004 16.875 9.44949 17.9868 9.44949Z" fill="#41230F"/>
</svg>
